<?xml version="1.0" encoding="utf-8"?>
<!-- Generator: Adobe Illustrator 22.1.0, SVG Export Plug-In . SVG Version: 6.00 Build 0)  -->
<svg version="1.1" id="Layer_1" xmlns="http://www.w3.org/2000/svg" xmlns:xlink="http://www.w3.org/1999/xlink" x="0px" y="0px"
	 viewBox="0 0 512 512" style="enable-background:new 0 0 512 512;" xml:space="preserve">
<style type="text/css">
	.st0{fill:#3D3D3D;}
</style>
<path class="st0" d="M492.4,397.8l-2.4-7.2c-5.6-16.7-24.1-34.2-41-38.8l-62.7-17.1c-17-4.6-41.3,1.6-53.7,14L310,371.4
	c-82.5-22.3-147.1-86.9-169.4-169.4l22.7-22.7c12.4-12.4,18.7-36.7,14-53.7L160.3,63c-4.6-17-22.1-35.4-38.8-41l-7.2-2.4
	c-16.7-5.6-40.6,0.1-53,12.5l-33.9,34c-6.1,6-9.9,23.3-9.9,23.3C16.3,197.2,58.5,301,134.7,377.2c76,76,179.5,118.2,286.9,117.3
	c0.6,0,18.3-3.8,24.4-9.8l33.9-33.9C492.4,438.3,498,414.5,492.4,397.8z"/>
</svg>
