<?xml version="1.0" encoding="utf-8"?>
<!-- Generator: Adobe Illustrator 22.1.0, SVG Export Plug-In . SVG Version: 6.00 Build 0)  -->
<svg version="1.1" id="Layer_1" xmlns="http://www.w3.org/2000/svg" xmlns:xlink="http://www.w3.org/1999/xlink" x="0px" y="0px"
	 viewBox="0 0 256 256" style="enable-background:new 0 0 256 256;" xml:space="preserve">
<style type="text/css">
	.st0{fill:#3D3D3D;}
</style>
<desc>Created with Fabric.js 1.7.22</desc>
<g transform="translate(128 128) scale(0.72 0.72)">
	<g transform="translate(-175.05 -175.05000000000004) scale(3.89 3.89)">
		<path class="st0" d="M45,51.6l45-27.8v-6.4c0-1.6-1.3-2.9-2.9-2.9H2.9c-1.6,0-2.9,1.3-2.9,2.9v6.4L45,51.6z"/>
		<path class="st0" d="M45.8,54.7C45.8,54.7,45.8,54.7,45.8,54.7c-0.1,0.1-0.2,0.1-0.3,0.1c0,0-0.1,0-0.1,0c-0.1,0-0.2,0-0.4,0
			c0,0,0,0,0,0h0h0c0,0,0,0,0,0c-0.1,0-0.2,0-0.4,0c0,0-0.1,0-0.1,0c-0.1,0-0.2-0.1-0.3-0.1c0,0,0,0,0,0L0,27.3v45.3
			c0,1.6,1.3,2.9,2.9,2.9h84.2c1.6,0,2.9-1.3,2.9-2.9V27.3L45.8,54.7z"/>
	</g>
</g>
</svg>
