<?xml version="1.0" encoding="utf-8"?>
<!-- Generator: Adobe Illustrator 22.1.0, SVG Export Plug-In . SVG Version: 6.00 Build 0)  -->
<svg version="1.1" id="Layer_1" xmlns="http://www.w3.org/2000/svg" xmlns:xlink="http://www.w3.org/1999/xlink" x="0px" y="0px"
	 viewBox="0 0 256 256" style="enable-background:new 0 0 256 256;" xml:space="preserve">
<style type="text/css">
	.st0{fill:#61C4CD;}
</style>
<desc>Created with Fabric.js 1.7.22</desc>
<g transform="translate(128 128) scale(0.72 0.72)">
	<g transform="translate(-175.05 -175.05000000000004) scale(3.89 3.89)">
		<path class="st0" d="M71.3,14.9v-8H58.7v8H31.3v-8H18.7v8H0l0,0v20.3v47.9h90V35.2V14.9l0,0H71.3z M62.7,10.9h4.7v10.2h-4.7
			L62.7,10.9L62.7,10.9z M22.7,10.9h4.7v10.2h-4.7V10.9z M86,79.1H4V35.2h82V79.1z"/>
		<path class="st0" d="M45,39.5c-9.7,0-17.5,7.8-17.5,17.5S35.3,74.5,45,74.5S62.5,66.7,62.5,57S54.7,39.5,45,39.5z M50.8,58.6
			L50.4,59c-0.1,0.1-0.2,0.1-0.3,0.2h-0.6c0,0,0,0,0,0h-6v-2v-6.5v-3.2c0-0.1,0-0.1,0-0.2v-0.5c0,0,0,0,0-0.1l0.6-0.8
			c0.4-0.5,0.9-1.1,1.4-1.6c0.5,0.5,1,1.1,1.4,1.6l0.6,0.8c0,0,0,0,0,0.1v0.5c0,0.1,0,0.1,0,0.2v3.2v4.5h1.6h0.3c0.1,0,0.2,0,0.2,0
			h0.5c0.1,0.1,0.2,0.1,0.3,0.2l0.4,0.3c0.6,0.4,1.2,0.9,1.8,1.5C52,57.7,51.4,58.2,50.8,58.6z"/>
	</g>
</g>
</svg>
