<?xml version="1.0" encoding="utf-8"?>
<!-- Generator: Adobe Illustrator 22.1.0, SVG Export Plug-In . SVG Version: 6.00 Build 0)  -->
<svg version="1.1" id="Layer_1" xmlns="http://www.w3.org/2000/svg" xmlns:xlink="http://www.w3.org/1999/xlink" x="0px" y="0px"
	 viewBox="0 0 256 256" style="enable-background:new 0 0 256 256;" xml:space="preserve">
<style type="text/css">
	.st0{fill:#61C4CD;}
</style>
<desc>Created with Fabric.js 1.7.22</desc>
<g transform="translate(128 128) scale(0.72 0.72)">
	<g transform="translate(-175.05 -175.05000000000004) scale(3.89 3.89)">
		<path class="st0" d="M42.5,52.1c1.5,1.2,3.6,1.2,5.1,0l22.4-17.2H20.1L42.5,52.1z"/>
		<path class="st0" d="M45,0C20.1,0,0,20.1,0,45s20.1,45,45,45s45-20.1,45-45S69.9,0,45,0z M69.9,65.6c0,3-2.4,5.5-5.5,5.5h-39
			c-3,0-5.5-2.4-5.5-5.5V34.8l22.1-17c1.7-1.3,4-1.3,5.7,0l22.1,17V65.6z"/>
	</g>
</g>
</svg>
