<?xml version="1.0" encoding="utf-8"?>
<!-- Generator: Adobe Illustrator 22.1.0, SVG Export Plug-In . SVG Version: 6.00 Build 0)  -->
<svg version="1.1" id="Layer_1" xmlns="http://www.w3.org/2000/svg" xmlns:xlink="http://www.w3.org/1999/xlink" x="0px" y="0px"
	 viewBox="0 0 256 256" style="enable-background:new 0 0 256 256;" xml:space="preserve">
<style type="text/css">
	.st0{fill:#61C4CD;}
	.st1{fill:#3D3D3D;}
</style>
<desc>Created with Fabric.js 1.7.22</desc>
<g transform="translate(128 128) scale(0.72 0.72)">
	<g transform="translate(-175.05 -175.05000000000004) scale(3.89 3.89)">
		<path class="st0" d="M2.1,44.6c0,7.6,2,15,5.7,21.5L1.8,88.4l22.8-6c6.3,3.4,13.4,5.2,20.6,5.2h0c23.7,0,43.1-19.3,43.1-43.1
			c0-11.5-4.5-22.3-12.6-30.5C67.5,6,56.7,1.6,45.2,1.6C21.4,1.6,2.1,20.9,2.1,44.6"/>
		<path class="st0" d="M0.6,44.6c0,7.9,2.1,15.5,6,22.3L0.2,90l23.7-6.2c6.5,3.6,13.9,5.4,21.3,5.4h0c24.6,0,44.6-20,44.6-44.6
			c0-11.9-4.6-23.1-13.1-31.6C68.3,4.6,57.1,0,45.2,0C20.6,0,0.6,20,0.6,44.6 M14.7,65.7l-0.9-1.4c-3.7-5.9-5.7-12.7-5.7-19.7
			c0-20.4,16.6-37.1,37.1-37.1c9.9,0,19.2,3.9,26.2,10.9c7,7,10.9,16.3,10.9,26.2c0,20.4-16.6,37.1-37.1,37.1h0
			c-6.7,0-13.2-1.8-18.9-5.2l-1.4-0.8l-14,3.7L14.7,65.7z M45.2,89.2L45.2,89.2L45.2,89.2C45.2,89.2,45.2,89.2,45.2,89.2"/>
		<path class="st1" d="M34,26c-0.8-1.9-1.7-1.9-2.5-1.9c-0.6,0-1.4,0-2.1,0c-0.7,0-2,0.3-3,1.4c-1,1.1-3.9,3.8-3.9,9.3
			c0,5.5,4,10.8,4.6,11.5c0.6,0.7,7.7,12.4,19,16.8c9.4,3.7,11.3,3,13.4,2.8c2-0.2,6.6-2.7,7.5-5.3s0.9-4.8,0.7-5.3
			c-0.3-0.5-1-0.7-2.1-1.3c-1.1-0.6-6.6-3.3-7.6-3.6c-1-0.4-1.8-0.6-2.5,0.6c-0.7,1.1-2.9,3.6-3.5,4.4c-0.7,0.7-1.3,0.8-2.4,0.3
			c-1.1-0.6-4.7-1.7-9-5.5c-3.3-3-5.6-6.6-6.2-7.7c-0.7-1.1-0.1-1.7,0.5-2.3c0.5-0.5,1.1-1.3,1.7-2c0.6-0.7,0.7-1.1,1.1-1.9
			c0.4-0.7,0.2-1.4-0.1-2C37.2,33.7,35,28.2,34,26"/>
	</g>
</g>
</svg>
