<svg id="Layer_1" data-name="Layer 1" xmlns="http://www.w3.org/2000/svg" xmlns:xlink="http://www.w3.org/1999/xlink" viewBox="0 0 1137.78 864"><defs><clipPath id="clip-path" transform="translate(-71.26 -80)"><rect width="1280" height="1024" fill="none"/></clipPath><clipPath id="clip-path-2" transform="translate(-71.26 -80)"><rect y="-90" width="1280" height="1024" fill="none"/></clipPath></defs><title>logo-noregales-tuauto</title><rect width="1137.78" height="864" fill="none"/><polygon points="161.62 667.18 147.14 667.18 131.91 609.28 124.91 667.18 109.95 667.18 120.97 575.44 135.59 575.44 150.77 633.35 157.73 575.44 172.69 575.44 161.62 667.18" fill="#ffbe58"/><g clip-path="url(#clip-path)"><path d="M269,748.44q-9.93-.32-15.92-9.45t-6.78-24.45a99,99,0,0,1,.83-17.8,82.22,82.22,0,0,1,4.5-18.87,48.19,48.19,0,0,1,8.1-14.36q8.13-9.64,18.72-9.33a18,18,0,0,1,11.4,4.32q4.88,4.13,7.81,11.87A57.78,57.78,0,0,1,301,688a102.6,102.6,0,0,1-.59,15.91,88.56,88.56,0,0,1-3.45,17,58,58,0,0,1-6.5,14.27,33.29,33.29,0,0,1-9.39,9.8A20.25,20.25,0,0,1,269,748.44M286,687.83q-.45-15.75-8.49-16.38-6.21-.45-10.28,7.08t-5.39,22.22a113,113,0,0,0-.61,14q.44,16,8.58,16.44,5.34.38,9.19-5.51t5.55-17.14A117.74,117.74,0,0,0,286,687.83" transform="translate(-71.26 -80)" fill="#ffbe58"/><path d="M352.45,714.73h-8.31l-3.94,32.45h-15l11-91.74,22.48.06q10.81,0,16.65,7.27t5.23,19.86q-.48,9.95-4,16.46a26.15,26.15,0,0,1-9.8,10.29l8.57,36.73v1.07h-16Zm-6.3-17,8.75.13a8.76,8.76,0,0,0,6.24-2.53,14.26,14.26,0,0,0,3.78-6.92,23,23,0,0,0,.66-8.49q-.87-7-6.21-7.39l-10.15-.07Z" transform="translate(-71.26 -80)" fill="#ffbe58"/><polygon points="354.22 628.24 330.81 628.24 328.14 650.17 355.84 650.17 353.79 667.18 311.13 667.18 322.15 575.44 364.9 575.44 362.84 592.52 335.1 592.52 332.74 611.86 356.19 611.86 354.22 628.24" fill="#ffbe58"/><path d="M484.28,735.9a23.71,23.71,0,0,1-10.46,9.36,32.75,32.75,0,0,1-15.22,3.12,18.54,18.54,0,0,1-13.52-5.8q-5.52-5.67-7.88-15.81a73.37,73.37,0,0,1-1.27-22.87l.35-3.79q2-21.35,10.44-33.83t20.63-12.16q10.68.25,16.41,8.25t6.38,23.13l-14.35-.07q-.3-7.33-2.51-10.72a7.54,7.54,0,0,0-6.28-3.58q-6-.32-10,6.83t-5.38,20.42a114,114,0,0,0-.87,17.63q.64,15.16,9.49,15.36a12.69,12.69,0,0,0,9.36-3.72l2-14.3H461.22l1.84-15.19h25.33Z" transform="translate(-71.26 -80)" fill="#ffbe58"/><path d="M528.56,730H508.21l-5.64,17.2H486.08l33.73-91.74H533.9l11.77,91.74H530.09Zm-14.75-17H527l-2.8-31.63Z" transform="translate(-71.26 -80)" fill="#ffbe58"/><polygon points="496.55 650.17 522.5 650.17 520.44 667.18 479.53 667.18 490.56 575.44 505.56 575.44 496.55 650.17" fill="#ffbe58"/><polygon points="570.19 628.24 546.78 628.24 544.11 650.17 571.8 650.17 569.75 667.18 527.09 667.18 538.12 575.44 580.86 575.44 578.81 592.52 551.07 592.52 548.7 611.86 572.16 611.86 570.19 628.24" fill="#ffbe58"/><path d="M682.44,722.36q1-7.12-5.34-11l-7.18-4.28q-15.09-9.76-14.35-26.59a30.11,30.11,0,0,1,3.68-13.71,24,24,0,0,1,9.32-9.36,25.26,25.26,0,0,1,13-3.21,18.79,18.79,0,0,1,15.21,7.94q5.75,7.7,5.66,20.6H687.56a17.12,17.12,0,0,0-1.56-8.47,6,6,0,0,0-5.53-3.31,9.1,9.1,0,0,0-6.65,2.52,11,11,0,0,0-3.41,7.12q-.84,6.3,6.49,10.34a63.77,63.77,0,0,1,10.66,6.93q10.46,9,9.8,24.32a32.17,32.17,0,0,1-3.55,13.92,23,23,0,0,1-8.86,9.27,24.09,24.09,0,0,1-12.71,3.15,22.52,22.52,0,0,1-9.58-2.34,21.27,21.27,0,0,1-7.57-6.42q-6.39-8.5-6.12-22.37l15,.06q-.26,7.06,1.89,10.68c1.43,2.42,3.83,3.63,7.22,3.63a8.55,8.55,0,0,0,6.27-2.49,11.42,11.42,0,0,0,3.09-6.9" transform="translate(-71.26 -80)" fill="#ffbe58"/><polygon points="708.1 592.52 689.55 592.52 680.58 667.18 665.57 667.18 674.58 592.52 656.34 592.52 658.44 575.44 710.15 575.44 708.1 592.52" fill="#ffbe58"/><path d="M836.76,655.44l-7.09,59.86q-1.53,15.57-8.91,24.51a22.36,22.36,0,0,1-18.57,8.7,19.6,19.6,0,0,1-12.08-4.32,24,24,0,0,1-7.54-11.66,43.91,43.91,0,0,1-1.64-17.17L788,655.44h15.06l-7.05,60a43.24,43.24,0,0,0-.09,6,13.66,13.66,0,0,0,2,7.25,6.37,6.37,0,0,0,5.14,2.77q9.63.45,11.59-16.08l7.09-60Z" transform="translate(-71.26 -80)" fill="#ffbe58"/><path d="M894.68,730H874.34l-5.64,17.2H852.2l33.73-91.74H900l11.77,91.74H896.22Zm-14.74-17h13.21l-2.8-31.63Z" transform="translate(-71.26 -80)" fill="#ffbe58"/><path d="M975.93,655.44l-7.08,59.86q-1.53,15.57-8.91,24.51a22.36,22.36,0,0,1-18.57,8.7,19.6,19.6,0,0,1-12.08-4.32,24,24,0,0,1-7.54-11.66,43.91,43.91,0,0,1-1.64-17.17l7.08-59.92h15l-7,60a43.24,43.24,0,0,0-.09,6,13.66,13.66,0,0,0,2,7.25,6.37,6.37,0,0,0,5.14,2.77q9.63.45,11.59-16.08l7.09-60Z" transform="translate(-71.26 -80)" fill="#ffbe58"/><polygon points="960.68 592.52 942.13 592.52 933.16 667.18 918.15 667.18 927.17 592.52 908.92 592.52 911.02 575.44 962.74 575.44 960.68 592.52" fill="#ffbe58"/><path d="M1054.65,748.44q-9.95-.32-15.93-9.45t-6.78-24.45a99.89,99.89,0,0,1,.83-17.8,82.74,82.74,0,0,1,4.5-18.87,48.19,48.19,0,0,1,8.1-14.36q8.14-9.64,18.73-9.33a18,18,0,0,1,11.39,4.32q4.89,4.13,7.81,11.87a57.48,57.48,0,0,1,3.42,17.65,105.15,105.15,0,0,1-.59,15.91,88.57,88.57,0,0,1-3.46,17,57.64,57.64,0,0,1-6.5,14.27,33.26,33.26,0,0,1-9.38,9.8,20.27,20.27,0,0,1-12.14,3.43m17.06-60.61q-.43-15.75-8.49-16.38-6.21-.45-10.28,7.08t-5.38,22.22a111.46,111.46,0,0,0-.62,14q.45,16,8.58,16.44,5.34.38,9.19-5.51t5.56-17.14a118.64,118.64,0,0,0,1.44-20.76" transform="translate(-71.26 -80)" fill="#ffbe58"/><polygon points="201.72 751.16 215.23 704.7 227.1 704.7 205.78 768.76 194.45 768.76 187.06 704.7 198.27 704.7 201.72 751.16" fill="#77f4ff"/><polygon points="252.91 741.57 236.7 741.57 234.86 756.88 254.03 756.88 252.6 768.76 223.07 768.76 230.71 704.7 260.3 704.7 258.88 716.62 239.67 716.62 238.04 730.13 254.27 730.13 252.91 741.57" fill="#77f4ff"/><polygon points="292.83 768.76 282.8 768.76 272.26 728.33 267.42 768.76 257.06 768.76 264.69 704.7 274.81 704.7 285.32 745.13 290.13 704.7 300.49 704.7 292.83 768.76" fill="#77f4ff"/><path d="M370.87,848.76l7.63-64.06,13,0a13.53,13.53,0,0,1,10,4.38,24.86,24.86,0,0,1,6.06,11.94,47,47,0,0,1,.94,14.35l-.21,2.68a49.71,49.71,0,0,1-3.94,15.62,29,29,0,0,1-8,11,16.9,16.9,0,0,1-10.6,4.07Zm16.6-52.18-4.82,40.26,3,0q5.32,0,8.56-6t3.83-18.31l.06-1.45q.21-7-1.52-10.69c-1.15-2.44-2.87-3.71-5.17-3.83Z" transform="translate(-71.26 -80)" fill="#77f4ff"/><polygon points="368.64 741.57 352.44 741.57 350.59 756.88 369.76 756.88 368.34 768.76 338.81 768.76 346.44 704.7 376.03 704.7 374.61 716.62 355.41 716.62 353.77 730.13 370.01 730.13 368.64 741.57" fill="#77f4ff"/><polygon points="384.57 756.88 402.54 756.88 401.11 768.76 372.79 768.76 380.43 704.7 390.81 704.7 384.57 756.88" fill="#77f4ff"/><path d="M493.24,849.64q-6.89-.23-11-6.6T477.52,826a70.23,70.23,0,0,1,.57-12.43,58.47,58.47,0,0,1,3.12-13.18,33.67,33.67,0,0,1,5.61-10q5.63-6.74,13-6.51a12.32,12.32,0,0,1,7.89,3,19.86,19.86,0,0,1,5.41,8.29,40.63,40.63,0,0,1,2.36,12.32,73.82,73.82,0,0,1-.41,11.11,62,62,0,0,1-2.39,11.89,40.34,40.34,0,0,1-4.5,10,23,23,0,0,1-6.5,6.84,13.87,13.87,0,0,1-8.4,2.4m11.81-42.33q-.3-11-5.88-11.44c-2.86-.2-5.24,1.45-7.11,5s-3.12,8.68-3.73,15.51a77.31,77.31,0,0,0-.42,9.82q.3,11.18,5.93,11.48c2.47.18,4.59-1.11,6.36-3.85s3.06-6.73,3.85-12a82.57,82.57,0,0,0,1-14.5" transform="translate(-71.26 -80)" fill="#77f4ff"/><path d="M569.14,826.94a30,30,0,0,1-3,12,20.3,20.3,0,0,1-7,8.05,16,16,0,0,1-9.34,2.68q-6.91-.23-10.88-6.47t-4.33-16.94a79.36,79.36,0,0,1,1.08-15.53,52,52,0,0,1,4.39-14.63,25.22,25.22,0,0,1,7.18-9.33,14,14,0,0,1,9-3,13.57,13.57,0,0,1,11.4,6.29q4.2,6.12,4.56,16.86l-10.33,0q.06-5.85-1.45-8.36a5.57,5.57,0,0,0-4.79-2.68q-8.17-.41-10,18.48-.83,8.54-.82,12.19-.15,10.82,5.51,11.13a6.6,6.6,0,0,0,5.85-2.62,15.76,15.76,0,0,0,2.79-7.9Z" transform="translate(-71.26 -80)" fill="#77f4ff"/><path d="M590.19,849.64q-6.87-.23-11-6.6T574.47,826a70.33,70.33,0,0,1,.58-12.43,57.41,57.41,0,0,1,3.12-13.18,33.66,33.66,0,0,1,5.6-10q5.64-6.74,13-6.51a12.36,12.36,0,0,1,7.89,3,19.75,19.75,0,0,1,5.4,8.29,40.63,40.63,0,0,1,2.36,12.32,72.42,72.42,0,0,1-.4,11.11,62.77,62.77,0,0,1-2.4,11.89,40.34,40.34,0,0,1-4.5,10,22.93,22.93,0,0,1-6.49,6.84,13.92,13.92,0,0,1-8.41,2.4M602,807.31q-.32-11-5.88-11.44-4.3-.3-7.12,5t-3.72,15.51a77.69,77.69,0,0,0-.43,9.82q.3,11.18,5.94,11.48c2.46.18,4.58-1.11,6.36-3.85s3.06-6.73,3.85-12a83.54,83.54,0,0,0,1-14.5" transform="translate(-71.26 -80)" fill="#77f4ff"/><polygon points="578.37 768.76 568.34 768.76 557.8 728.33 552.95 768.76 542.59 768.76 550.23 704.7 560.34 704.7 570.85 745.13 575.67 704.7 586.03 704.7 578.37 768.76" fill="#77f4ff"/><polygon points="636.22 768.76 626.19 768.76 615.65 728.33 610.81 768.76 600.45 768.76 608.08 704.7 618.2 704.7 628.71 745.13 633.52 704.7 643.88 704.7 636.22 768.76" fill="#77f4ff"/><path d="M732.46,849.64q-6.87-.23-11-6.6T716.74,826a70.33,70.33,0,0,1,.58-12.43,57.41,57.41,0,0,1,3.12-13.18,33.66,33.66,0,0,1,5.6-10q5.64-6.74,13-6.51a12.32,12.32,0,0,1,7.89,3,19.67,19.67,0,0,1,5.41,8.29,40.63,40.63,0,0,1,2.36,12.32,71.27,71.27,0,0,1-.41,11.11,62,62,0,0,1-2.39,11.89,40.34,40.34,0,0,1-4.5,10,22.93,22.93,0,0,1-6.49,6.84,13.92,13.92,0,0,1-8.41,2.4m11.81-42.33q-.3-11-5.87-11.44-4.3-.3-7.12,5t-3.73,15.51a79.25,79.25,0,0,0-.42,9.82q.3,11.18,5.94,11.48c2.46.18,4.58-1.11,6.36-3.85s3.06-6.73,3.85-12a82.5,82.5,0,0,0,1-14.5" transform="translate(-71.26 -80)" fill="#77f4ff"/><path d="M780.35,831.43a7.31,7.31,0,0,0-3.7-7.7l-5-3q-10.46-6.81-9.94-18.57a21.25,21.25,0,0,1,2.54-9.57,16.63,16.63,0,0,1,6.46-6.53,17.29,17.29,0,0,1,9-2.24,12.94,12.94,0,0,1,10.53,5.54q4,5.37,3.92,14.39h-10.3a12.21,12.21,0,0,0-1.07-5.92,4.18,4.18,0,0,0-3.83-2.31,6.26,6.26,0,0,0-4.61,1.76,7.72,7.72,0,0,0-2.36,5c-.38,2.94,1.11,5.34,4.5,7.22a44.27,44.27,0,0,1,7.37,4.84q7.25,6.29,6.79,17a22.59,22.59,0,0,1-2.46,9.73,16,16,0,0,1-6.13,6.47,16.67,16.67,0,0,1-8.8,2.2,15.52,15.52,0,0,1-6.63-1.63,14.76,14.76,0,0,1-5.24-4.49Q757,837.63,757.18,828l10.39,0c-.12,3.29.31,5.77,1.3,7.46a5.32,5.32,0,0,0,5,2.53,5.9,5.9,0,0,0,4.34-1.74,8,8,0,0,0,2.14-4.81" transform="translate(-71.26 -80)" fill="#77f4ff"/><path d="M812.3,849.64q-6.87-.23-11-6.6T796.58,826a70.33,70.33,0,0,1,.58-12.43,58.47,58.47,0,0,1,3.12-13.18,33.66,33.66,0,0,1,5.6-10q5.64-6.74,13-6.51a12.32,12.32,0,0,1,7.89,3,19.75,19.75,0,0,1,5.4,8.29,40.62,40.62,0,0,1,2.37,12.32,73.82,73.82,0,0,1-.41,11.11,62.77,62.77,0,0,1-2.39,11.89,41.09,41.09,0,0,1-4.5,10,23.09,23.09,0,0,1-6.5,6.84,13.9,13.9,0,0,1-8.41,2.4m11.82-42.33q-.3-11-5.88-11.44-4.31-.3-7.12,5t-3.72,15.51a77.69,77.69,0,0,0-.43,9.82c.21,7.45,2.18,11.27,5.94,11.48,2.46.18,4.58-1.11,6.36-3.85s3.06-6.73,3.85-12a82.57,82.57,0,0,0,1-14.5" transform="translate(-71.26 -80)" fill="#77f4ff"/><polygon points="801.99 716.62 789.15 716.62 782.94 768.76 772.55 768.76 778.79 716.62 766.16 716.62 767.61 704.7 803.41 704.7 801.99 716.62" fill="#77f4ff"/><path d="M890.45,826.1h-5.76L882,848.76H871.61l7.63-64.06,15.57,0q7.49,0,11.53,5.08T910,803.68a27.19,27.19,0,0,1-2.76,11.5,18.35,18.35,0,0,1-6.79,7.19L906.35,848v.75H895.3Zm-4.36-11.88,6.06.09a6,6,0,0,0,4.31-1.77,9.89,9.89,0,0,0,2.62-4.83,16.11,16.11,0,0,0,.46-5.93q-.62-4.89-4.3-5.16l-7,0Z" transform="translate(-71.26 -80)" fill="#77f4ff"/><path d="M929.37,849.64q-6.87-.23-11-6.6T913.65,826a70.33,70.33,0,0,1,.58-12.43,57.41,57.41,0,0,1,3.12-13.18,33.66,33.66,0,0,1,5.6-10q5.64-6.74,13-6.51a12.32,12.32,0,0,1,7.89,3,19.67,19.67,0,0,1,5.41,8.29,40.63,40.63,0,0,1,2.36,12.32,71.27,71.27,0,0,1-.41,11.11,62,62,0,0,1-2.39,11.89,40.34,40.34,0,0,1-4.5,10,22.93,22.93,0,0,1-6.49,6.84,13.92,13.92,0,0,1-8.41,2.4m11.81-42.33q-.3-11-5.87-11.44-4.3-.3-7.12,5t-3.73,15.51a79.25,79.25,0,0,0-.42,9.82q.3,11.18,5.94,11.48c2.46.18,4.58-1.11,6.36-3.85s3.06-6.73,3.85-12a82.5,82.5,0,0,0,1-14.5" transform="translate(-71.26 -80)" fill="#77f4ff"/><path d="M977.26,831.43a7.31,7.31,0,0,0-3.7-7.7l-5-3q-10.46-6.81-9.94-18.57a21.13,21.13,0,0,1,2.55-9.57,16.54,16.54,0,0,1,6.45-6.53,17.29,17.29,0,0,1,9-2.24,12.93,12.93,0,0,1,10.53,5.54q4,5.37,3.92,14.39H980.8a12.1,12.1,0,0,0-1.07-5.92,4.18,4.18,0,0,0-3.83-2.31,6.27,6.27,0,0,0-4.61,1.76,7.72,7.72,0,0,0-2.36,5q-.57,4.41,4.5,7.22a44.27,44.27,0,0,1,7.37,4.84q7.25,6.29,6.79,17a22.59,22.59,0,0,1-2.46,9.73,15.94,15.94,0,0,1-6.13,6.47,16.65,16.65,0,0,1-8.8,2.2,15.52,15.52,0,0,1-6.63-1.63,14.76,14.76,0,0,1-5.24-4.49q-4.43-5.94-4.24-15.62l10.39,0c-.12,3.29.31,5.77,1.3,7.46a5.33,5.33,0,0,0,5,2.53,5.9,5.9,0,0,0,4.34-1.74,8,8,0,0,0,2.14-4.81" transform="translate(-71.26 -80)" fill="#77f4ff"/><path d="M991.65,842.38a8.94,8.94,0,0,1,1.54-5.48,4.73,4.73,0,0,1,4-2.26,4.68,4.68,0,0,1,3.88,2.07,8.61,8.61,0,0,1,1.6,5.14,8.93,8.93,0,0,1-1.54,5.53,4.77,4.77,0,0,1-4,2.22,4.7,4.7,0,0,1-3.85-2.05,8.5,8.5,0,0,1-1.63-5.17m11.26-13.9h-8.08l4-43.78h10.6Z" transform="translate(-71.26 -80)" fill="#77f4ff"/></g><g clip-path="url(#clip-path-2)"><path d="M746.73,206.09c-31.42-13.57-93.11-18.43-162.85-10.75S455,221.2,427.29,241.28c-1.76,1.17-3.43,2.34-5,3.52,14.62-24.11,80.18-48.14,160.73-57s149.76.3,169.27,20.66c-1.74-.82-3.62-1.6-5.59-2.35M748.36,217a3.06,3.06,0,1,1-2.92-2.66,2.81,2.81,0,0,1,2.92,2.66m-68.59-4c-4.18-.14-7.5-2.05-7.43-4.24s3.53-3.88,7.7-3.74,7.51,2,7.43,4.25-3.52,3.88-7.7,3.73m-101.6-.38c-.24-2.19,2.93-4.34,7.08-4.8s7.72,1,8,3.14-2.93,4.35-7.09,4.8-7.72-.95-8-3.14m13.48,53.29c-31.85,3.51-58.52-1.26-59.56-10.65s24-19.87,55.81-23.37,58.53,1.25,59.56,10.65-24,19.86-55.81,23.37m-100-32.17c-4.05,1-7.77.17-8.33-2s2.28-4.71,6.33-5.76,7.77-.17,8.32,2-2.27,4.71-6.32,5.76m-58.25,20.08a2.58,2.58,0,1,1,2.26-3.24,2.81,2.81,0,0,1-2.26,3.24m242.37-80.14c-8.78-16.57-49.31-25.54-96.47-20.35-40.6,4.48-74.12,18.13-85.82,33.38,79-22.39,138.5-14.39,138.5-14.39-1.45.15-2.89.32-4.33.48-14.69.45-30.06,1.52-45.85,3.26C484.84,186.74,408.82,218.57,412,247.15s84.27,43.09,181.19,32.41,172.93-42.51,169.78-71.09c-2-18.49-36.74-31.09-87.22-34.79" transform="translate(-71.26 -80)" fill="#77f4ff"/></g><g clip-path="url(#clip-path-2)"><path d="M631.65,251.64c-12.77-2.32-21.64-2.62-41.49-.53-20.73,2.19-29.94,4.64-40.67,9.26l-83.1,275.42H857Z" transform="translate(-71.26 -80)" fill="#ffbe58"/></g><g clip-path="url(#clip-path-2)"><path d="M857,535.8c0,14.6-87.44,26.43-195.3,26.43S466.39,550.4,466.39,535.8s87.44-26.45,195.31-26.45S857,521.19,857,535.8" transform="translate(-71.26 -80)" fill="#e5a137"/></g><g clip-path="url(#clip-path-2)"><path d="M571.48,457a11.13,11.13,0,1,1,12.74-9.25A11.14,11.14,0,0,1,571.48,457m4.65-29.32a18.55,18.55,0,1,0,15.42,21.23,18.58,18.58,0,0,0-15.42-21.23" transform="translate(-71.26 -80)"/></g><g clip-path="url(#clip-path-2)"><path d="M696.09,476.76a11.13,11.13,0,1,1,12.73-9.25,11.15,11.15,0,0,1-12.73,9.25m4.64-29.32a18.55,18.55,0,1,0,15.42,21.23,18.57,18.57,0,0,0-15.42-21.23" transform="translate(-71.26 -80)" fill="#606060"/></g><g clip-path="url(#clip-path-2)"><path d="M571.48,457a11.13,11.13,0,1,1,12.74-9.25A11.14,11.14,0,0,1,571.48,457m4.65-29.32a18.55,18.55,0,1,0,15.42,21.23,18.58,18.58,0,0,0-15.42-21.23" transform="translate(-71.26 -80)" fill="#606060"/></g><g clip-path="url(#clip-path-2)"><path d="M550.1,444h0c-1.32,5-8.42,3-8.42,3L529,445l18,18.55,15.36,2.57A23.22,23.22,0,0,1,550.1,444" transform="translate(-71.26 -80)" fill="#330202"/></g><g clip-path="url(#clip-path-2)"><path d="M725.05,477.06c-4-.67-5-2.68-5.26-3.89a23.18,23.18,0,0,1-45.15-6.94c-2.58,3.1-7.95,1.46-7.95,1.46s-61.51-9.36-66-10.23-5.52-3.86-5.52-3.86-.22.43-.66,1.14a23.21,23.21,0,0,1-24.94,13.82,24.08,24.08,0,0,1-3.2-.77,18.39,18.39,0,0,0,28.47,3.77l84.82,14.21a18.16,18.16,0,0,0,5.52,6.31,18.56,18.56,0,0,0,23.22-1.49L723.05,493a6.41,6.41,0,0,0,3.25,0,3.93,3.93,0,0,0,1.69-1c.35-.34,12.2-12.6,12.2-12.6s-9.37-1.48-15.14-2.44" transform="translate(-71.26 -80)" fill="#330202"/></g><g clip-path="url(#clip-path-2)"><path d="M713.24,421.49l-10-1.58a1.78,1.78,0,0,1-1.58-2l1.51-8.88a1.9,1.9,0,0,1,3.16-.83,46.68,46.68,0,0,1,8.74,10.82,1.66,1.66,0,0,1-1.87,2.42m-16.5-18.67-2.37,14a1.78,1.78,0,0,1-2.09,1.33l-33-5.24a1.76,1.76,0,0,1-1.57-1.92l2.84-17.94a1.77,1.77,0,0,1,2.09-1.37,190.41,190.41,0,0,1,23,5.18,66.86,66.86,0,0,1,10.18,4.18,1.67,1.67,0,0,1,.94,1.76m-46.4,7a1.76,1.76,0,0,1-2.09,1.34l-47.79-7.57a1.65,1.65,0,0,1-.76-3.08c14.36-8.37,31.47-11.74,51.65-10.17a1.82,1.82,0,0,1,1.76,2Zm94,46.86L747.47,437a3.35,3.35,0,0,0-2-3.5L725.76,424c-5.92-13.05-14.84-26-37.92-33.45l-.12,0c-42.83-12.34-77-8.7-101.7,10.8-15.71-2.28-32.18-1.88-42.44,2A15.93,15.93,0,0,0,533.51,415L531.79,423a3.55,3.55,0,0,0-4.19,2.71l-2.08,13.13a3.53,3.53,0,0,0,3.15,3.86l14.66,2.33a3.56,3.56,0,0,0,4.19-2.74.43.43,0,0,0,0-.05,19.16,19.16,0,0,1,.69-2.83,25.86,25.86,0,0,1,50.83,7.9,21.06,21.06,0,0,1-.23,3.15c-.58,1.95,1,3.51,3.14,3.86l66,10.45a3.56,3.56,0,0,0,4.2-2.74V462a21.13,21.13,0,0,1,.68-2.77,25.85,25.85,0,0,1,50.84,7.7,21.57,21.57,0,0,1-.22,3.29c-.58,1.95,1,3.52,3.14,3.87l14.66,2.32a3.55,3.55,0,0,0,4.19-2.71l2.08-13.14a3.55,3.55,0,0,0-3.15-3.86" transform="translate(-71.26 -80)" fill="#911b1b"/></g></svg>